<svg width="20" height="20" viewBox="0 0 20 20" fill="none" xmlns="http://www.w3.org/2000/svg">
<path d="M10 20C8.61667 20 7.31667 19.7373 6.1 19.212C4.88334 18.6867 3.825 17.9743 2.925 17.075C2.025 16.1757 1.31267 15.1173 0.788001 13.9C0.263335 12.6827 0.000667932 11.3827 1.26582e-06 10C-0.000665401 8.61733 0.262001 7.31733 0.788001 6.1C1.314 4.88267 2.02633 3.82433 2.925 2.925C3.82367 2.02567 4.882 1.31333 6.1 0.788C7.318 0.262667 8.618 0 10 0C11.382 0 12.682 0.262667 13.9 0.788C15.118 1.31333 16.1763 2.02567 17.075 2.925C17.9737 3.82433 18.6863 4.88267 19.213 6.1C19.7397 7.31733 20.002 8.61733 20 10C19.998 11.3827 19.7353 12.6827 19.212 13.9C18.6887 15.1173 17.9763 16.1757 17.075 17.075C16.1737 17.9743 15.1153 18.687 13.9 19.213C12.6847 19.739 11.3847 20.0013 10 20ZM9 15H11C11.55 15 12.021 14.8043 12.413 14.413C12.805 14.0217 13.0007 13.5507 13 13V7C13 6.45 12.8043 5.97933 12.413 5.588C12.0217 5.19667 11.5507 5.00067 11 5H9C8.45 5 7.97934 5.196 7.588 5.588C7.19667 5.98 7.00067 6.45067 7 7V13C7 13.55 7.196 14.021 7.588 14.413C7.98 14.805 8.45067 15.0007 9 15ZM9 7H11V13H9V7Z" fill="#0022FF"/>
</svg>
