<svg width="21" height="21" viewBox="0 0 21 21" fill="none" xmlns="http://www.w3.org/2000/svg">
<path d="M10.207 20.7891C8.8237 20.7891 7.5237 20.5264 6.30703 20.0011C5.09037 19.4757 4.03203 18.7634 3.13203 17.8641C2.23203 16.9647 1.5197 15.9064 0.995033 14.6891C0.470366 13.4717 0.207699 12.1717 0.207033 10.7891C0.206366 9.4064 0.469033 8.1064 0.995033 6.88906C1.52103 5.67173 2.23337 4.6134 3.13203 3.71406C4.0307 2.81473 5.08903 2.1024 6.30703 1.57706C7.52503 1.05173 8.82503 0.789063 10.207 0.789062C11.589 0.789062 12.889 1.05173 14.107 1.57706C15.325 2.1024 16.3834 2.81473 17.282 3.71406C18.1807 4.6134 18.8934 5.67173 19.42 6.88906C19.9467 8.1064 20.209 9.4064 20.207 10.7891C20.205 12.1717 19.9424 13.4717 19.419 14.6891C18.8957 15.9064 18.1834 16.9647 17.282 17.8641C16.3807 18.7634 15.3224 19.4761 14.107 20.0021C12.8917 20.5281 11.5917 20.7904 10.207 20.7891ZM9.20703 15.7891H11.207C11.757 15.7891 12.228 15.5934 12.62 15.2021C13.012 14.8107 13.2077 14.3397 13.207 13.7891V7.78906C13.207 7.23906 13.0114 6.7684 12.62 6.37706C12.2287 5.98573 11.7577 5.78973 11.207 5.78906H9.20703C8.65703 5.78906 8.18637 5.98506 7.79503 6.37706C7.4037 6.76906 7.2077 7.23973 7.20703 7.78906V13.7891C7.20703 14.3391 7.40303 14.8101 7.79503 15.2021C8.18703 15.5941 8.6577 15.7897 9.20703 15.7891ZM9.20703 7.78906H11.207V13.7891H9.20703V7.78906Z" fill="#0000FF"/>
</svg>
